<svg height="512pt" viewBox="0 -29 512 512" width="512pt" xmlns="http://www.w3.org/2000/svg"><path d="m21.652344 381.015625v20.417969c0 29.3125 23.851562 53.164062 53.167968 53.164062h362.359376c29.316406 0 53.167968-23.847656 53.167968-53.164062v-20.417969zm0 0"/><path d="m491.550781 238.160156c11.277344 0 20.449219-9.1875 20.449219-20.472656 0-11.289062-9.175781-20.476562-20.449219-20.476562h-471.101562c-11.273438.003906-20.449219 9.1875-20.449219 20.476562 0 11.285156 9.175781 20.472656 20.449219 20.472656h245.28125.003906.304687c.199219 0 .394532.023438.589844.027344.105469.007812.207032.011719.3125.019531 4.148438.203125 7.933594 1.808594 10.882813 4.367188l70.699219 41.742187 70.699218-41.742187c2.953125-2.558594 6.734375-4.160157 10.886719-4.367188.101563-.007812.207031-.011719.308594-.019531.199219-.003906.394531-.027344.59375-.027344h.304687.003906zm0 0"/><path d="m308.921875 0h-105.84375c-93.949219 0-171.421875 71.785156-180.511719 163.382812h466.867188c-9.089844-91.597656-86.5625-163.382812-180.511719-163.382812zm-158.839844 93.050781c-9.484375 0-16.507812-7.75-16.917969-16.917969-.410156-9.132812 8.066407-16.914062 16.917969-16.914062 9.480469 0 16.503907 7.75 16.914063 16.914062.410156 9.136719-8.066406 16.917969-16.914063 16.917969zm35.304688 34.792969c-9.484375 0-16.503907-7.75-16.917969-16.917969-.40625-9.136719 8.070312-16.914062 16.917969-16.914062 9.484375 0 16.507812 7.75 16.917969 16.914062.40625 9.136719-8.070313 16.917969-16.917969 16.917969zm35.308593-34.792969c-9.484374 0-16.507812-7.75-16.917968-16.917969-.410156-9.132812 8.066406-16.914062 16.917968-16.914062 9.480469 0 16.503907 7.75 16.914063 16.914062.410156 9.136719-8.066406 16.917969-16.914063 16.917969zm35.304688 34.792969c-9.484375 0-16.503906-7.75-16.917969-16.917969-.40625-9.136719 8.070313-16.914062 16.917969-16.914062 9.484375 0 16.503906 7.75 16.917969 16.914062.40625 9.136719-8.070313 16.917969-16.917969 16.917969zm35.304688-34.792969c-9.480469 0-16.503907-7.75-16.914063-16.917969-.410156-9.132812 8.066406-16.914062 16.914063-16.914062 9.484374 0 16.507812 7.75 16.917968 16.914062.410156 9.136719-8.066406 16.917969-16.917968 16.917969zm35.308593 34.792969c-9.484375 0-16.507812-7.75-16.917969-16.917969-.40625-9.136719 8.070313-16.914062 16.917969-16.914062 9.484375 0 16.503907 7.75 16.917969 16.914062.40625 9.136719-8.070312 16.917969-16.917969 16.917969zm35.304688-34.792969c-9.480469 0-16.503907-7.75-16.914063-16.917969-.410156-9.132812 8.066406-16.914062 16.914063-16.914062 9.484375 0 16.507812 7.75 16.917969 16.914062.410156 9.136719-8.066407 16.917969-16.917969 16.917969zm0 0"/><path d="m509.746094 310.59375c0-20.039062-16.292969-36.347656-36.316406-36.347656h-41.308594l-74.421875 43.945312c-2.777344 1.636719-5.949219 2.503906-9.171875 2.503906-3.226563 0-6.398438-.867187-9.175782-2.503906l-74.421874-43.945312h-226.359376c-20.023437 0-36.316406 16.304687-36.316406 36.347656s16.292969 36.347656 36.316406 36.347656h434.859376c20.023437 0 36.316406-16.304687 36.316406-36.347656zm0 0"/></svg>